<svg width="700" height="155" xmlns="http://www.w3.org/2000/svg">
 <g>
  <title>Jonas Havers</title>
   <g id="icon">
     <path id="circle" d="m76.666939,10.773985c-39.138,0 -70.866,31.728 -70.866,70.866c0,26.433 14.483,49.47 35.936,61.651c2.573,-1.682 4.61,-3.511 6.1,-5.49c1.51,-2.005 2.633,-4.244 3.369,-6.715c0.735,-2.471 1.193,-5.175 1.371,-8.112c0.179,-2.936 0.268,-6.187 0.268,-9.753l0,-6.259l-0.051,-75.144l11.38,0l0,36.238c2.226,-2.214 4.293,-4.03 6.201,-5.446s3.766,-2.532 5.575,-3.349c1.809,-0.817 3.647,-1.379 5.516,-1.688c1.869,-0.308 3.896,-0.463 6.082,-0.463c3.617,0 6.718,0.372 9.302,1.116c2.584,0.744 4.77,1.788 6.559,3.131c1.789,1.343 3.229,2.959 4.323,4.847c1.094,1.888 1.928,3.975 2.504,6.263s0.964,4.738 1.163,7.352c0.199,2.614 0.298,5.337 0.298,8.169l0,33.927l-11.329,0l0,-33.927c0,-4.03 -0.179,-7.515 -0.537,-10.456c-0.358,-2.941 -1.034,-5.373 -2.027,-7.297c-0.993,-1.924 -2.385,-3.349 -4.174,-4.275s-4.135,-1.389 -7.036,-1.389c-2.504,0 -4.929,0.318 -7.275,0.953c-2.346,0.636 -4.511,1.416 -6.499,2.342c-1.988,0.926 -3.727,1.906 -5.217,2.941c-1.491,1.035 -2.634,1.952 -3.429,2.75l0,44.77c0,4.173 -0.447,8.052 -1.342,11.637s-2.197,6.755 -3.906,9.51c-1.71,2.755 -3.777,5.064 -6.201,6.928c-0.587,0.451 -1.196,0.867 -1.823,1.255c7.988,3.12 16.671,4.851 25.764,4.851c39.138,0 70.866,-31.728 70.866,-70.866c0.001,-39.14 -31.727,-70.868 -70.865,-70.868z" fill="#3C3C3B"/>
     <circle id="circle-dot" r="8.504" cy="13.057985" cx="58.485939" fill="#009FE3"/>
   </g>
  <g id="name">
    <ellipse id="j-dot" stroke="null" ry="4.093919" rx="4.053594" cy="45.148716" cx="195.166748" stroke-width="null" fill="#3C3C3B"/>
    <path id="j" d="m183.371939,117.177985c1.826,-1.162 3.265,-2.428 4.316,-3.798c1.051,-1.369 1.833,-2.898 2.345,-4.586c0.511,-1.688 0.83,-3.534 0.954,-5.541c0.125,-2.005 0.187,-4.226 0.187,-6.661l0,-4.275l0,-34.365l7.886,0l0,42.126c0,2.85 -0.311,5.499 -0.934,7.948c-0.622,2.448 -1.529,4.613 -2.718,6.495c-1.19,1.881 -2.629,3.459 -4.316,4.731c-1.688,1.272 -3.611,2.172 -5.769,2.698l-1.951,-4.772z" fill="#3C3C3B"/>
    <path id="jo" d="m253.513939,82.770985c0,1.94 -0.139,3.915 -0.416,5.924s-0.75,3.956 -1.416,5.841c-0.666,1.884 -1.547,3.645 -2.643,5.279c-1.096,1.636 -2.455,3.063 -4.078,4.282c-1.625,1.22 -3.553,2.183 -5.787,2.89c-2.232,0.706 -4.807,1.06 -7.719,1.06c-2.903,0 -5.467,-0.354 -7.692,-1.06c-2.226,-0.707 -4.146,-1.67 -5.764,-2.89c-1.617,-1.219 -2.971,-2.646 -4.063,-4.282c-1.092,-1.635 -1.969,-3.396 -2.633,-5.279c-0.664,-1.885 -1.134,-3.824 -1.41,-5.82c-0.276,-1.995 -0.415,-3.978 -0.415,-5.945c0,-1.961 0.138,-3.943 0.415,-5.946c0.276,-2.002 0.746,-3.936 1.41,-5.801c0.664,-1.864 1.541,-3.611 2.633,-5.242c1.092,-1.629 2.446,-3.052 4.063,-4.268c1.618,-1.215 3.538,-2.168 5.764,-2.859c2.225,-0.69 4.789,-1.036 7.692,-1.036c2.913,0 5.487,0.346 7.719,1.036c2.234,0.691 4.162,1.644 5.787,2.859c1.623,1.215 2.982,2.638 4.078,4.268c1.096,1.63 1.977,3.377 2.643,5.242c0.666,1.865 1.139,3.798 1.416,5.801c0.277,2.003 0.416,3.985 0.416,5.946zm-22.018,19.756c1.995,0 3.734,-0.285 5.215,-0.854c1.482,-0.568 2.758,-1.344 3.824,-2.328c1.068,-0.984 1.947,-2.128 2.641,-3.432c0.691,-1.303 1.246,-2.683 1.662,-4.139c0.416,-1.455 0.707,-2.945 0.873,-4.471s0.248,-2.994 0.248,-4.409c0,-1.414 -0.082,-2.877 -0.248,-4.388c-0.166,-1.511 -0.457,-2.995 -0.873,-4.451c-0.416,-1.455 -0.971,-2.834 -1.662,-4.138c-0.693,-1.303 -1.572,-2.447 -2.641,-3.431c-1.066,-0.984 -2.348,-1.761 -3.844,-2.33c-1.497,-0.568 -3.228,-0.853 -5.196,-0.853c-1.967,0 -3.692,0.291 -5.175,0.874s-2.757,1.366 -3.824,2.35c-1.066,0.984 -1.953,2.128 -2.66,3.431c-0.707,1.304 -1.268,2.676 -1.683,4.117c-0.416,1.442 -0.707,2.926 -0.873,4.451c-0.166,1.525 -0.249,2.98 -0.249,4.367c0,1.415 0.083,2.878 0.249,4.388c0.166,1.512 0.457,2.996 0.873,4.451c0.416,1.455 0.977,2.835 1.683,4.139c0.707,1.303 1.594,2.446 2.66,3.431c1.067,0.984 2.341,1.767 3.824,2.35s3.208,0.875 5.176,0.875z" fill="#3C3C3B"/>
    <path id="jon" d="m270.487939,65.712985c0.83,-1.023 1.937,-2.047 3.32,-3.071c1.383,-1.023 2.898,-1.951 4.545,-2.781c1.646,-0.83 3.361,-1.5 5.146,-2.013c1.784,-0.511 3.492,-0.768 5.125,-0.768c2.906,0 5.361,0.436 7.367,1.308c2.006,0.871 3.646,2.131 4.918,3.776c1.272,1.647 2.193,3.66 2.761,6.039c0.566,2.38 0.851,5.078 0.851,8.093l0,30.173l-7.886,0l0,-30.173c0,-2.103 -0.166,-3.991 -0.498,-5.666c-0.332,-1.673 -0.872,-3.092 -1.618,-4.254c-0.748,-1.162 -1.717,-2.055 -2.906,-2.677c-1.189,-0.623 -2.656,-0.934 -4.398,-0.934c-1.328,0 -2.781,0.263 -4.358,0.789c-1.577,0.526 -3.1,1.162 -4.565,1.909c-1.467,0.747 -2.809,1.536 -4.025,2.366c-1.219,0.83 -2.117,1.536 -2.698,2.117l0,36.523l-7.886,0l0,-48.518l5.811,0l0.994,7.762z" fill="#3C3C3B"/>
    <path id="jona" d="m335.589939,62.765985c-1.247,0 -2.555,0.111 -3.926,0.332c-1.371,0.222 -2.728,0.547 -4.07,0.975c-1.343,0.43 -2.645,0.955 -3.904,1.577c-1.26,0.623 -2.401,1.335 -3.427,2.138l-2.807,-5.479c1.576,-0.857 3.042,-1.611 4.397,-2.262c1.355,-0.65 2.732,-1.197 4.129,-1.64c1.397,-0.442 2.863,-0.774 4.399,-0.996c1.535,-0.221 3.271,-0.332 5.208,-0.332c4.182,0 7.526,0.457 10.032,1.37c2.507,0.913 4.418,2.324 5.733,4.233s2.174,4.344 2.576,7.305c0.401,2.961 0.603,6.489 0.603,10.583l0,25.898l-5.811,0l-1.162,-7.388c-2.051,2.878 -4.49,4.967 -7.317,6.268c-2.826,1.3 -6,1.95 -9.519,1.95c-2.486,0 -4.731,-0.318 -6.733,-0.954c-2.003,-0.637 -3.709,-1.584 -5.117,-2.844c-1.409,-1.258 -2.493,-2.828 -3.253,-4.711c-0.76,-1.881 -1.14,-4.066 -1.14,-6.557c0,-2.408 0.456,-4.566 1.368,-6.475c0.912,-1.91 2.141,-3.528 3.688,-4.856c1.547,-1.328 3.343,-2.345 5.387,-3.051c2.044,-0.705 4.199,-1.058 6.465,-1.058c2.272,0 4.344,0.098 6.215,0.292s3.479,0.408 4.823,0.639c1.344,0.231 2.391,0.445 3.139,0.64l1.081,0.255c0,-2.805 -0.056,-5.216 -0.167,-7.233c-0.11,-2.015 -0.513,-3.657 -1.205,-4.924c-0.692,-1.267 -1.787,-2.2 -3.284,-2.799s-3.63,-0.896 -6.401,-0.896zm-2.911,38.847c2.522,0 4.913,-0.539 7.172,-1.618s4.524,-2.67 6.798,-4.772l0,-12.369c-1.165,-0.166 -2.301,-0.304 -3.409,-0.415c-0.97,-0.11 -2.01,-0.214 -3.118,-0.311c-1.109,-0.097 -2.148,-0.146 -3.118,-0.146c-1.996,0 -3.88,0.104 -5.654,0.312c-1.773,0.207 -3.326,0.657 -4.656,1.349c-1.331,0.691 -2.384,1.688 -3.16,2.988c-0.775,1.301 -1.163,3.029 -1.163,5.188c0,1.938 0.248,3.535 0.748,4.794c0.498,1.26 1.198,2.263 2.099,3.009c0.901,0.748 1.982,1.267 3.243,1.557c1.259,0.29 2.666,0.434 4.218,0.434z" fill="#3C3C3B"/>
    <path id="jonas" d="m374.123939,82.230985c-1.411,-0.498 -2.739,-1.113 -3.984,-1.846s-2.324,-1.604 -3.237,-2.613c-0.913,-1.009 -1.633,-2.164 -2.158,-3.463c-0.526,-1.3 -0.789,-2.766 -0.789,-4.397c0,-2.16 0.452,-4.049 1.354,-5.668c0.902,-1.62 2.104,-2.956 3.604,-4.008s3.209,-1.841 5.126,-2.367s3.903,-0.789 5.959,-0.789c1.791,0 3.535,0.18 5.231,0.54c1.697,0.36 3.257,0.803 4.683,1.328c1.426,0.526 2.667,1.086 3.726,1.681c1.059,0.595 1.859,1.114 2.402,1.556l-2.423,5.235c-1.668,-1.302 -3.615,-2.403 -5.843,-3.303c-2.229,-0.9 -4.642,-1.351 -7.237,-1.351c-1.63,0 -3.06,0.188 -4.288,0.562s-2.257,0.873 -3.086,1.497c-0.828,0.624 -1.45,1.337 -1.863,2.141c-0.415,0.804 -0.621,1.649 -0.621,2.536c0,1.552 0.593,2.82 1.781,3.804c1.188,0.984 2.832,1.851 4.935,2.599l6.969,2.458c2.075,0.747 3.956,1.563 5.641,2.449s3.128,1.909 4.328,3.071c1.199,1.162 2.129,2.491 2.789,3.985s0.991,3.21 0.991,5.146c0,1.738 -0.29,3.465 -0.87,5.176c-0.579,1.713 -1.523,3.244 -2.831,4.597s-3.013,2.45 -5.116,3.292c-2.103,0.842 -4.69,1.264 -7.765,1.264c-2.165,0 -4.171,-0.193 -6.017,-0.577c-1.847,-0.384 -3.491,-0.845 -4.935,-1.38c-1.443,-0.536 -2.693,-1.1 -3.748,-1.689c-1.055,-0.591 -1.874,-1.092 -2.456,-1.504l2.647,-5.273c0.609,0.5 1.434,1.025 2.474,1.58c1.039,0.554 2.189,1.066 3.45,1.537c1.262,0.471 2.571,0.857 3.931,1.163c1.357,0.305 2.66,0.457 3.908,0.457c0.911,0 1.981,-0.11 3.21,-0.332s2.389,-0.622 3.479,-1.204c1.091,-0.58 2.016,-1.383 2.774,-2.407c0.76,-1.023 1.14,-2.324 1.14,-3.902c0,-1.106 -0.195,-2.081 -0.585,-2.926c-0.391,-0.845 -0.94,-1.591 -1.651,-2.241c-0.71,-0.65 -1.553,-1.225 -2.528,-1.723s-2.048,-0.955 -3.218,-1.371l-9.283,-3.32z" fill="#3C3C3B"/>
    <path id="h" d="m436.379939,65.421985c1.549,-1.688 2.988,-3.071 4.316,-4.15s2.621,-1.93 3.881,-2.552c1.259,-0.623 2.538,-1.051 3.839,-1.287c1.3,-0.234 2.711,-0.353 4.233,-0.353c2.518,0 4.676,0.284 6.475,0.851c1.798,0.568 3.32,1.363 4.565,2.387c1.245,1.024 2.248,2.255 3.009,3.694c0.761,1.439 1.342,3.03 1.743,4.773s0.671,3.611 0.81,5.603c0.138,1.992 0.208,4.067 0.208,6.226l0,25.857l-7.887,0l0,-25.857c0,-3.071 -0.124,-5.728 -0.373,-7.969s-0.72,-4.095 -1.411,-5.562c-0.692,-1.466 -1.66,-2.552 -2.905,-3.258c-1.245,-0.705 -2.878,-1.058 -4.897,-1.058c-1.743,0 -3.432,0.243 -5.063,0.726c-1.633,0.485 -3.141,1.079 -4.523,1.785c-1.385,0.705 -2.595,1.452 -3.632,2.241c-1.038,0.788 -1.834,1.487 -2.387,2.096l0,36.855l-7.886,0l0,-65.47l7.886,0l0,24.422l-0.001,0z" fill="#3C3C3B"/>
    <path id="ha" d="m500.525939,62.765985c-1.247,0 -2.555,0.111 -3.926,0.332c-1.371,0.222 -2.728,0.547 -4.07,0.975c-1.343,0.43 -2.645,0.955 -3.904,1.577c-1.26,0.623 -2.401,1.335 -3.427,2.138l-2.807,-5.479c1.576,-0.857 3.042,-1.611 4.397,-2.262c1.355,-0.65 2.732,-1.197 4.129,-1.64c1.397,-0.442 2.863,-0.774 4.399,-0.996c1.535,-0.221 3.271,-0.332 5.208,-0.332c4.182,0 7.526,0.457 10.032,1.37c2.507,0.913 4.418,2.324 5.733,4.233s2.174,4.344 2.576,7.305c0.401,2.961 0.603,6.489 0.603,10.583l0,25.898l-5.811,0l-1.162,-7.388c-2.051,2.878 -4.49,4.967 -7.317,6.268c-2.826,1.3 -6,1.95 -9.519,1.95c-2.486,0 -4.731,-0.318 -6.733,-0.954c-2.003,-0.637 -3.709,-1.584 -5.117,-2.844c-1.409,-1.258 -2.493,-2.828 -3.253,-4.711c-0.76,-1.881 -1.14,-4.066 -1.14,-6.557c0,-2.408 0.456,-4.566 1.368,-6.475c0.912,-1.91 2.141,-3.528 3.688,-4.856c1.547,-1.328 3.343,-2.345 5.387,-3.051c2.044,-0.705 4.199,-1.058 6.465,-1.058c2.272,0 4.344,0.098 6.215,0.292s3.479,0.408 4.823,0.639c1.344,0.231 2.391,0.445 3.139,0.64l1.081,0.255c0,-2.805 -0.056,-5.216 -0.167,-7.233c-0.11,-2.015 -0.513,-3.657 -1.205,-4.924c-0.692,-1.267 -1.787,-2.2 -3.284,-2.799s-3.629,-0.896 -6.401,-0.896zm-2.911,38.847c2.522,0 4.913,-0.539 7.172,-1.618s4.524,-2.67 6.798,-4.772l0,-12.369c-1.165,-0.166 -2.301,-0.304 -3.409,-0.415c-0.97,-0.11 -2.01,-0.214 -3.118,-0.311c-1.109,-0.097 -2.148,-0.146 -3.118,-0.146c-1.996,0 -3.88,0.104 -5.654,0.312c-1.773,0.207 -3.326,0.657 -4.656,1.349c-1.331,0.691 -2.384,1.688 -3.16,2.988c-0.775,1.301 -1.163,3.029 -1.163,5.188c0,1.938 0.248,3.535 0.748,4.794c0.498,1.26 1.198,2.263 2.099,3.009c0.901,0.748 1.982,1.267 3.243,1.557c1.259,0.29 2.666,0.434 4.218,0.434z" fill="#3C3C3B"/>
    <path id="hav" d="m543.937939,106.469985l-17.038,-48.518l7.735,0l14.038,40.332l13.672,-40.332l6.722,0l-16.683,48.518l-8.446,0z" fill="#3C3C3B"/>
    <path id="have" d="m613.639939,102.276985c-1.095,0.803 -2.341,1.516 -3.736,2.138c-1.396,0.623 -2.813,1.149 -4.249,1.577c-1.438,0.43 -2.827,0.754 -4.168,0.976s-2.491,0.332 -3.449,0.332c-3.652,0 -6.841,-0.608 -9.566,-1.826s-4.987,-2.926 -6.785,-5.126c-1.8,-2.199 -3.148,-4.814 -4.047,-7.844c-0.899,-3.03 -1.35,-6.371 -1.35,-10.023c0,-3.292 0.437,-6.467 1.308,-9.525c0.872,-3.057 2.165,-5.762 3.881,-8.114c1.715,-2.352 3.846,-4.233 6.392,-5.645c2.545,-1.411 5.506,-2.117 8.882,-2.117c3.113,0 5.852,0.478 8.214,1.432c2.362,0.955 4.35,2.332 5.961,4.13c1.611,1.799 2.827,3.999 3.646,6.599c0.819,2.601 1.229,5.548 1.229,8.84c0,0.886 -0.026,1.737 -0.08,2.553c-0.053,0.816 -0.134,1.584 -0.24,2.303l-31.305,0c0,3.459 0.332,6.377 0.996,8.757s1.618,4.303 2.863,5.769c1.245,1.467 2.767,2.525 4.565,3.176c1.798,0.65 3.832,0.975 6.101,0.975c1.32,0 2.53,-0.104 3.63,-0.311c1.101,-0.208 2.139,-0.512 3.115,-0.913c0.976,-0.401 1.925,-0.906 2.846,-1.515c0.921,-0.609 1.876,-1.314 2.866,-2.117l2.48,5.519zm-4.562,-25.566c0,-2.213 -0.277,-4.185 -0.83,-5.915c-0.555,-1.729 -1.328,-3.188 -2.324,-4.378c-0.996,-1.189 -2.18,-2.096 -3.549,-2.718c-1.37,-0.623 -2.871,-0.934 -4.504,-0.934c-2.186,0 -4.095,0.401 -5.727,1.204c-1.634,0.803 -3.01,1.896 -4.13,3.279c-1.121,1.384 -1.992,3.009 -2.615,4.876c-0.622,1.868 -1.031,3.881 -1.224,6.039l24.902,0l0,-1.453l0.001,0z" fill="#3C3C3B"/>
    <path id="haver" d="m632.733939,65.604985c0.94,-1.121 1.896,-2.201 2.864,-3.242c0.968,-1.04 1.985,-1.947 3.051,-2.722c1.064,-0.773 2.206,-1.394 3.424,-1.861c1.217,-0.467 2.559,-0.7 4.026,-0.7c1.549,0 2.932,0.166 4.15,0.498l0,5.977c-0.057,-0.027 -0.208,-0.055 -0.457,-0.083c-0.249,-0.027 -0.567,-0.048 -0.955,-0.063c-0.388,-0.013 -0.83,-0.021 -1.328,-0.021s-0.996,0 -1.494,0c-1.162,0 -2.311,0.195 -3.444,0.585c-1.135,0.391 -2.234,0.899 -3.3,1.527s-2.089,1.338 -3.071,2.133c-0.982,0.795 -1.902,1.61 -2.76,2.447l0,36.389l-7.886,0l0,-48.518l5.936,0l1.244,7.654z" fill="#3C3C3B"/>
    <path id="havers" d="m666.934939,82.230985c-1.411,-0.498 -2.739,-1.113 -3.984,-1.846s-2.324,-1.604 -3.237,-2.613c-0.913,-1.009 -1.633,-2.164 -2.158,-3.463c-0.526,-1.3 -0.789,-2.766 -0.789,-4.397c0,-2.16 0.452,-4.049 1.354,-5.668c0.902,-1.62 2.104,-2.956 3.604,-4.008s3.209,-1.841 5.126,-2.367s3.903,-0.789 5.959,-0.789c1.791,0 3.535,0.18 5.231,0.54c1.697,0.36 3.257,0.803 4.683,1.328c1.426,0.526 2.667,1.086 3.726,1.681c1.059,0.595 1.859,1.114 2.402,1.556l-2.423,5.235c-1.668,-1.302 -3.615,-2.403 -5.843,-3.303c-2.229,-0.9 -4.642,-1.351 -7.237,-1.351c-1.63,0 -3.06,0.188 -4.288,0.562s-2.257,0.873 -3.086,1.497c-0.828,0.624 -1.45,1.337 -1.863,2.141c-0.415,0.804 -0.621,1.649 -0.621,2.536c0,1.552 0.593,2.82 1.781,3.804c1.188,0.984 2.832,1.851 4.935,2.599l6.969,2.458c2.075,0.747 3.956,1.563 5.641,2.449s3.128,1.909 4.328,3.071c1.199,1.162 2.129,2.491 2.789,3.985s0.991,3.21 0.991,5.146c0,1.738 -0.29,3.465 -0.87,5.176c-0.579,1.713 -1.523,3.244 -2.831,4.597s-3.013,2.45 -5.116,3.292c-2.103,0.842 -4.69,1.264 -7.765,1.264c-2.165,0 -4.171,-0.193 -6.017,-0.577c-1.847,-0.384 -3.491,-0.845 -4.935,-1.38c-1.443,-0.536 -2.693,-1.1 -3.748,-1.689c-1.055,-0.591 -1.874,-1.092 -2.456,-1.504l2.647,-5.273c0.609,0.5 1.434,1.025 2.474,1.58c1.039,0.554 2.189,1.066 3.45,1.537c1.262,0.471 2.571,0.857 3.931,1.163c1.357,0.305 2.66,0.457 3.908,0.457c0.911,0 1.981,-0.11 3.21,-0.332s2.389,-0.622 3.479,-1.204c1.091,-0.58 2.016,-1.383 2.774,-2.407c0.76,-1.023 1.14,-2.324 1.14,-3.902c0,-1.106 -0.195,-2.081 -0.585,-2.926c-0.391,-0.845 -0.94,-1.591 -1.651,-2.241c-0.71,-0.65 -1.553,-1.225 -2.528,-1.723s-2.048,-0.955 -3.218,-1.371l-9.283,-3.32z" fill="#3C3C3B"/>
  </g>
 </g>
</svg>
